# xmcd CD database file
#
# Track frame offsets:
#	150
#	20852
#	47747
#	67682
#	83990
#	88645
#	107772
#	116222
#	122930
#	133320
#	144890
#	172682
#	183125
#	200605
#	211100
#	221247
#	231060
#	246222
#	257570
#	262442
#
# Disc length: 3605 seconds
#
# Revision: 0
# Processed by: cddbd v1.5.2PL0 Copyright (c) Steve Scherf et al.
# Submitted via: CDex 1.70beta2
#
DISCID=2a0e1314
DTITLE=38. Landesposaunentag Ulm 2000 - Ulmer Sonderdruck 20
DYEAR=2000
DGENRE=Brass Ensemble
TTITLE0=J.S. Bach: Lobe den Herren, den mächtigen König der Ehren 
TTITLE1=D.Falk: Jesu, meine Freude
TTITLE2=J.M.Sander: Österliches Morgenlob
TTITLE3=H.P.Braun: Lob Gott getrost mit Singen
TTITLE4=J.S.Bach: Lob Gott getrost mit Singen
TTITLE5=J.S.Bach: Menuett
TTITLE6=I.Bredenbach: Wenn die Last der Welt
TTITLE7=G.F.Händel: Du bist der Ruhm aller seiner Kraft, Halleluja
TTITLE8=M.Schütz: Komm, sag es allen weiter
TTITLE9=E.Crespo: The Battle of Jericho
TTITLE10=R.Gössler: Variationen in Swing
TTITLE11=F.Mendelsohn-Bartholdy: So ihr mich von ganzem Herzen suchet
TTITLE12=H.Lammel: Schalom, Schalom, der Herr segne uns
TTITLE13=G.F.Händel: Ouverture
TTITLE14=J.S.Bach: Lobe den Herren, den mächtigen König der Ehren
TTITLE15=R.Roblee: Deep river ( Spiritual )
TTITLE16=J.B. Tolar: Suite
TTITLE17=J.S.Bach: Nun danket alle Gott
TTITLE18=Läuten der Münsterglocken
TTITLE19=J.S.Bach: Gloria sei dir gesungen
EXTD=YEAR: 2000
EXTT0=
EXTT1=
EXTT2=
EXTT3=
EXTT4=
EXTT5=
EXTT6=
EXTT7=
EXTT8=
EXTT9=
EXTT10=
EXTT11=
EXTT12=
EXTT13=
EXTT14=
EXTT15=
EXTT16=
EXTT17=
EXTT18=
EXTT19=
PLAYORDER=
